<?xml version="1.0" encoding="UTF-8"?>
<svg version="1.1" xmlns="http://www.w3.org/2000/svg" width="80" height="80">
<path d="M0 0 C2.68016898 0.97929251 3.85141985 1.91446682 5.75 4.015625 C8.13927527 6.54877061 10.54803371 8.93070106 13.1875 11.203125 C13.84363281 11.77289063 14.49976563 12.34265625 15.17578125 12.9296875 C16.90127564 14.425712 18.62807806 15.92022798 20.35546875 17.4140625 C21.36251414 18.30147661 22.36902782 19.18949448 23.375 20.078125 C24.78072266 21.30595703 24.78072266 21.30595703 26.21484375 22.55859375 C29.3488454 25.84681692 29.3488454 25.84681692 29.4375 28.890625 C28.26542041 34.08626141 24.50838431 37.19667102 20.8125 40.765625 C20.18093994 41.38622803 19.54937988 42.00683105 18.89868164 42.64624023 C15.06178147 46.39254761 11.15089 50.02473648 7.05859375 53.4921875 C4.72297695 55.50700874 2.58401094 57.67703559 0.4375 59.890625 C-3.84695559 57.89058047 -7.35439404 55.37618878 -10.5625 51.890625 C-11.4375 49.453125 -11.4375 49.453125 -10.5625 46.890625 C-8.84173618 44.90284611 -7.03553205 43.11601139 -5.09375 41.34375 C-4.5884375 40.86421875 -4.083125 40.3846875 -3.5625 39.890625 C-3.5625 39.560625 -3.5625 39.230625 -3.5625 38.890625 C-4.7992749 38.86556885 -6.0360498 38.8405127 -7.31030273 38.81469727 C-11.88186713 38.72080247 -16.45327318 38.62053871 -21.0246582 38.51831055 C-23.00639146 38.47489356 -24.98816378 38.43322363 -26.9699707 38.39331055 C-29.8121317 38.33577117 -32.65409483 38.27203055 -35.49609375 38.20703125 C-36.38775742 38.19031876 -37.27942108 38.17360626 -38.19810486 38.15638733 C-44.44862829 38.00449671 -44.44862829 38.00449671 -45.5625 36.890625 C-45.66231214 34.2133112 -45.70129875 31.56758325 -45.6875 28.890625 C-45.69136719 28.14039062 -45.69523437 27.39015625 -45.69921875 26.6171875 C-45.68911053 21.01723553 -45.68911053 21.01723553 -44.5625 19.890625 C-41.53442956 19.7302694 -38.52664546 19.63102052 -35.49609375 19.57421875 C-34.58747086 19.55343765 -33.67884796 19.53265656 -32.74269104 19.51124573 C-29.82854054 19.44564828 -26.91429696 19.3868182 -24 19.328125 C-22.02928709 19.28494946 -20.05858374 19.24133549 -18.08789062 19.19726562 C-13.24619012 19.08995657 -8.40439563 18.98871825 -3.5625 18.890625 C-4.06006302 18.41658234 -4.55762604 17.94253967 -5.07026672 17.45413208 C-5.71392685 16.82876556 -6.35758698 16.20339905 -7.02075195 15.55908203 C-7.66268997 14.94066437 -8.30462799 14.3222467 -8.96601868 13.68508911 C-10.5625 11.890625 -10.5625 11.890625 -11.23046875 9.1953125 C-10.37281735 6.2361644 -9.20196159 5.01999487 -6.875 3.015625 C-6.19050781 2.39945313 -5.50601563 1.78328125 -4.80078125 1.1484375 C-2.5625 -0.109375 -2.5625 -0.109375 0 0 Z " fill="#20D3FD" transform="translate(48.5625,10.109375)"/>
<path d="M0 0 C4.43909781 1.39514503 6.98024981 3.47695811 10 7 C11.16983472 9.49564741 11.1221071 10.53943496 10.41796875 13.1953125 C8.41913872 17.14892122 5.54003482 19.81866418 2.375 22.875 C1.74343994 23.49560303 1.11187988 24.11620605 0.46118164 24.75561523 C-3.37571853 28.50192261 -7.28661 32.13411148 -11.37890625 35.6015625 C-13.71452305 37.61638374 -15.85348906 39.78641059 -18 42 C-22.28445559 39.99995547 -25.79189404 37.48556378 -29 34 C-29.875 31.5625 -29.875 31.5625 -29 29 C-27.27923618 27.01222111 -25.47303205 25.22538639 -23.53125 23.453125 C-23.0259375 22.97359375 -22.520625 22.4940625 -22 22 C-22 21.67 -22 21.34 -22 21 C-42.295 20.505 -42.295 20.505 -63 20 C-63.33 18.68 -63.66 17.36 -64 16 C-57.23731282 15.97465286 -50.47463789 15.95713431 -43.71191406 15.94506836 C-41.41112816 15.94003843 -39.11034545 15.93321376 -36.80957031 15.92456055 C-33.50324718 15.91243641 -30.1969663 15.90675828 -26.890625 15.90234375 C-25.86132874 15.89718246 -24.83203247 15.89202118 -23.77154541 15.88670349 C-22.81085144 15.88662796 -21.85015747 15.88655243 -20.86035156 15.88647461 C-19.59460297 15.88314369 -19.59460297 15.88314369 -18.30328369 15.87974548 C-16.07090873 15.99629785 -14.14140664 16.37773147 -12 17 C-12 16.34 -12 15.68 -12 15 C-10.6078125 14.938125 -10.6078125 14.938125 -9.1875 14.875 C-5.71052362 14.31140969 -5.71052362 14.31140969 -4.125 10.9375 C-3.75375 9.968125 -3.3825 8.99875 -3 8 C-2.34 8 -1.68 8 -1 8 C-1 7.34 -1 6.68 -1 6 C-1.66 5.67 -2.32 5.34 -3 5 C-2.34 5 -1.68 5 -1 5 C-0.67 3.35 -0.34 1.7 0 0 Z " fill="#1AA6F4" transform="translate(67,28)"/>
<path d="M0 0 C4.43458973 1.3937282 6.87378374 3.60582235 10 7 C8.71963476 13.47239752 4.63782734 16.65614281 -0.0625 20.875 C-0.83166748 21.57810303 -1.60083496 22.28120605 -2.39331055 23.00561523 C-3.90974351 24.38933427 -5.43021664 25.76864117 -6.95507812 27.14306641 C-8.65814651 28.68957287 -10.3301375 30.2572771 -11.984375 31.85546875 C-12.75265625 32.58378906 -13.5209375 33.31210937 -14.3125 34.0625 C-14.94800781 34.67222656 -15.58351563 35.28195313 -16.23828125 35.91015625 C-18 37 -18 37 -20.23046875 36.68359375 C-21.10638672 36.34521484 -21.10638672 36.34521484 -22 36 C-20.25 32.125 -20.25 32.125 -18 31 C-18.061875 30.21625 -18.12375 29.4325 -18.1875 28.625 C-18.125625 27.75875 -18.06375 26.8925 -18 26 C-15.38058783 24.25372522 -13.96175123 23.61277612 -11 23 C-11 22.01 -11 21.02 -11 20 C-10.75 18 -10.75 18 -10 16 C-8.67732273 14.98594743 -7.34275169 13.98731742 -6 13 C-4.99431758 11.33675599 -3.99335201 9.67063747 -3 8 C-2.34 8 -1.68 8 -1 8 C-1 7.34 -1 6.68 -1 6 C-1.66 5.67 -2.32 5.34 -3 5 C-2.34 5 -1.68 5 -1 5 C-0.67 3.35 -0.34 1.7 0 0 Z " fill="#1D92F1" transform="translate(67,28)"/>
<path d="M0 0 C0.66 0.66 1.32 1.32 2 2 C0.51839868 7.23499132 -2.82680136 10.20724554 -6.625 13.875 C-7.25656006 14.49560303 -7.88812012 15.11620605 -8.53881836 15.75561523 C-12.37571853 19.50192261 -16.28661 23.13411148 -20.37890625 26.6015625 C-22.71452305 28.61638374 -24.85348906 30.78641059 -27 33 C-29.91271644 31.65319085 -32.29328277 30.12551255 -34.75 28.0625 C-35.36359375 27.55847656 -35.9771875 27.05445312 -36.609375 26.53515625 C-38 25 -38 25 -38 22 C-35.05833742 22.42023751 -34.08790323 22.90660282 -32 25.125 C-30.24388884 27.21178867 -30.24388884 27.21178867 -28.25 26.953125 C-24.9067493 25.53688685 -22.57571764 23.11257668 -20 20.625 C-18.84946116 19.53462544 -17.69840676 18.44479465 -16.546875 17.35546875 C-15.96228516 16.79907715 -15.37769531 16.24268555 -14.77539062 15.66943359 C-13.04394146 14.04131899 -11.28759044 12.44711332 -9.515625 10.86328125 C-8.96648437 10.37069824 -8.41734375 9.87811523 -7.8515625 9.37060547 C-6.32462382 8.00427467 -4.79518756 6.64073656 -3.265625 5.27734375 C-0.79759159 3.13428295 -0.79759159 3.13428295 0 0 Z " fill="#314998" transform="translate(76,37)"/>
<path d="M0 0 C15.51 0 31.02 0 47 0 C47 0.99 47 1.98 47 3 C42.16681988 4.28509803 37.49278248 4.03254079 32.54296875 3.87890625 C31.64000565 3.85529526 30.73704254 3.83168427 29.80671692 3.80735779 C26.93347279 3.73101754 24.06051856 3.64686623 21.1875 3.5625 C19.23504005 3.50924962 17.28256611 3.45650944 15.33007812 3.40429688 C10.55320316 3.27544265 5.77657297 3.13958443 1 3 C0.67 2.01 0.34 1.02 0 0 Z " fill="#1965B9" transform="translate(3,45)"/>
<path d="M0 0 C4.43458973 1.3937282 6.87378374 3.60582235 10 7 C8.60804085 9.7839183 6.84424221 9.97898997 4 11 C4 10.34 4 9.68 4 9 C2.35 9.66 0.7 10.32 -1 11 C-1 11.66 -1 12.32 -1 13 C-2.98 13.99 -2.98 13.99 -5 15 C-5.33 14.34 -5.66 13.68 -6 13 C-4.6875 10.375 -4.6875 10.375 -3 8 C-2.34 8 -1.68 8 -1 8 C-1 7.34 -1 6.68 -1 6 C-1.66 5.67 -2.32 5.34 -3 5 C-2.34 5 -1.68 5 -1 5 C-0.67 3.35 -0.34 1.7 0 0 Z " fill="#1F9CF4" transform="translate(67,28)"/>
<path d="M0 0 C0.66 0.66 1.32 1.32 2 2 C-3.16915788 8.28172497 -8.88765825 13.64830522 -15 19 C-16.8368359 20.62103979 -18.67027533 22.24593777 -20.5 23.875 C-21.3146875 24.59429687 -22.129375 25.31359375 -22.96875 26.0546875 C-25.17398315 28.02561325 -25.17398315 28.02561325 -27 31 C-30.21043882 29.61811547 -32.04936365 28.07578097 -34.25 25.375 C-34.77078125 24.74335937 -35.2915625 24.11171875 -35.828125 23.4609375 C-36.21484375 22.97882812 -36.6015625 22.49671875 -37 22 C-34.73337803 23.06364023 -33.17911146 23.7984996 -31.5 25.6875 C-30.11598709 27.20468545 -30.11598709 27.20468545 -28.28125 26.91796875 C-24.89737812 25.55630798 -22.58427642 23.12084257 -20 20.625 C-18.84946116 19.53462544 -17.69840676 18.44479465 -16.546875 17.35546875 C-15.96228516 16.79907715 -15.37769531 16.24268555 -14.77539062 15.66943359 C-13.04394146 14.04131899 -11.28759044 12.44711332 -9.515625 10.86328125 C-8.96648437 10.37069824 -8.41734375 9.87811523 -7.8515625 9.37060547 C-6.32462382 8.00427467 -4.79518756 6.64073656 -3.265625 5.27734375 C-0.79759159 3.13428295 -0.79759159 3.13428295 0 0 Z " fill="#1549C6" transform="translate(76,37)"/>
<path d="M0 0 C1.43352212 0.00015908 2.86704998 0.00585132 4.30053711 0.01586914 C5.43041298 0.01799156 5.43041298 0.01799156 6.58311462 0.02015686 C8.99807646 0.02577163 11.41294687 0.03832656 13.82788086 0.05102539 C15.46134307 0.05603849 17.09480672 0.06060173 18.72827148 0.06469727 C22.74067671 0.07574585 26.75301326 0.09302033 30.76538086 0.11352539 C30.76538086 0.44352539 30.76538086 0.77352539 30.76538086 1.11352539 C30.00918457 1.13858154 29.25298828 1.1636377 28.47387695 1.18945312 C25.02922626 1.30589425 21.58481678 1.42840201 18.14038086 1.55102539 C16.35567383 1.61 16.35567383 1.61 14.53491211 1.67016602 C13.38120117 1.71206055 12.22749023 1.75395508 11.03881836 1.79711914 C9.45206299 1.85210571 9.45206299 1.85210571 7.83325195 1.90820312 C4.75610812 2.11414598 1.79669996 2.5553336 -1.23461914 3.11352539 C-1.89461914 6.74352539 -2.55461914 10.37352539 -3.23461914 14.11352539 C-3.56461914 14.11352539 -3.89461914 14.11352539 -4.23461914 14.11352539 C-4.26147852 11.96775903 -4.28095002 9.82189894 -4.29711914 7.67602539 C-4.3087207 6.48106445 -4.32032227 5.28610352 -4.33227539 4.05493164 C-4.19556441 -0.0628032 -4.16489563 0.14617529 0 0 Z " fill="#4AF2FD" transform="translate(7.234619140625,29.886474609375)"/>
<path d="M0 0 C0.45890625 0.40992188 0.9178125 0.81984375 1.390625 1.2421875 C2.00421875 1.78101563 2.6178125 2.31984375 3.25 2.875 C3.85328125 3.40867188 4.4565625 3.94234375 5.078125 4.4921875 C6.97418746 5.9797487 8.81290005 7.00322436 11 8 C12.65 6.02 14.3 4.04 16 2 C16.33 2.99 16.66 3.98 17 5 C15.02 6.98 13.04 8.96 11 11 C8.08728356 9.65319085 5.70671723 8.12551255 3.25 6.0625 C2.63640625 5.55847656 2.0228125 5.05445312 1.390625 4.53515625 C0 3 0 3 0 0 Z " fill="#2D52AC" transform="translate(38,59)"/>
<path d="M0 0 C13.53 0 27.06 0 41 0 C39 2 39 2 35.19287109 2.13525391 C33.55275438 2.09287412 31.91290567 2.03919625 30.2734375 1.9765625 C29.41062164 1.95153656 28.54780579 1.92651062 27.65884399 1.90072632 C24.89716971 1.81841184 22.13619848 1.72186733 19.375 1.625 C17.50523725 1.56677209 15.63544548 1.50946857 13.765625 1.453125 C9.1766774 1.3128161 4.5883106 1.15974165 0 1 C0 0.67 0 0.34 0 0 Z " fill="#1A488E" transform="translate(4,49)"/>
<path d="M0 0 C-13.2 0 -26.4 0 -40 0 C-40 -0.33 -40 -0.66 -40 -1 C-34.62519527 -1.19209289 -29.25017745 -1.37084171 -23.87451172 -1.53710938 C-22.04496291 -1.59559255 -20.21552788 -1.65775332 -18.38623047 -1.72363281 C-15.76030185 -1.81756847 -13.13425114 -1.89837127 -10.5078125 -1.9765625 C-9.27649094 -2.02485703 -9.27649094 -2.02485703 -8.02029419 -2.0741272 C-2.22774341 -2.22774341 -2.22774341 -2.22774341 0 0 Z " fill="#31ECFC" transform="translate(44,29)"/>
<path d="M0 0 C3.65316671 1.24976756 4.78065836 1.67098753 7 5 C6.01 5.33 5.02 5.66 4 6 C2.65909241 6.65129797 1.32407669 7.31513275 0 8 C-0.99 7.01 -1.98 6.02 -3 5 C-2.34 5 -1.68 5 -1 5 C-0.67 3.35 -0.34 1.7 0 0 Z " fill="#23A9F8" transform="translate(67,28)"/>
<path d="M0 0 C2.26662197 1.06364023 3.82088854 1.7984996 5.5 3.6875 C6.91980324 5.2406514 6.91980324 5.2406514 9 4.875 C11.20700414 3.90943569 12.42932829 2.80627247 14 1 C14.66 1.33 15.32 1.66 16 2 C14.02 4.31 12.04 6.62 10 9 C6.38677599 7.193388 5.16251209 6.33581029 2.75 3.375 C2.22921875 2.74335937 1.7084375 2.11171875 1.171875 1.4609375 C0.78515625 0.97882812 0.3984375 0.49671875 0 0 Z " fill="#125DD4" transform="translate(39,59)"/>
<path d="M0 0 C0.47050781 0.40992187 0.94101562 0.81984375 1.42578125 1.2421875 C2.04839844 1.78101562 2.67101563 2.31984375 3.3125 2.875 C4.23482422 3.67550781 4.23482422 3.67550781 5.17578125 4.4921875 C7.13498212 6.1640447 7.13498212 6.1640447 10 8 C10 8.66 10 9.32 10 10 C5.57299578 8.60865582 3.00586708 6.52115858 0 3 C0 2.01 0 1.02 0 0 Z " fill="#1F74DE" transform="translate(39,20)"/>
<path d="M0 0 C0.66 0.33 1.32 0.66 2 1 C0.90653119 2.34212062 -0.2001575 3.67347975 -1.3125 5 C-2.23482422 6.11375 -2.23482422 6.11375 -3.17578125 7.25 C-5 9 -5 9 -8 9 C-6.4169423 4.7257442 -3.49431596 2.73468206 0 0 Z " fill="#60F7FE" transform="translate(46,10)"/>
<path d="M0 0 C0.66 0.99 1.32 1.98 2 3 C0.25 5.0625 0.25 5.0625 -2 7 C-3.32 6.67 -4.64 6.34 -6 6 C-4.02 4.02 -2.04 2.04 0 0 Z " fill="#2EBEFC" transform="translate(44,51)"/>
<path d="M0 0 C0.33 1.32 0.66 2.64 1 4 C-0.65 5.32 -2.3 6.64 -4 8 C-4.25 5.6875 -4.25 5.6875 -4 3 C-2 1.1875 -2 1.1875 0 0 Z " fill="#1A84ED" transform="translate(75,36)"/>
<path d="M0 0 C3.3 0 6.6 0 10 0 C10 0.66 10 1.32 10 2 C6.18243176 3.37432457 2.92744671 2.67975039 -1 2 C-0.67 1.34 -0.34 0.68 0 0 Z " fill="#1F408E" transform="translate(39,46)"/>
<path d="M0 0 C2.475 0.99 2.475 0.99 5 2 C2.6875 4.0625 2.6875 4.0625 0 6 C-0.99 5.67 -1.98 5.34 -3 5 C-2.34 5 -1.68 5 -1 5 C-0.67 3.35 -0.34 1.7 0 0 Z " fill="#2FB5F9" transform="translate(67,28)"/>
<path d="M0 0 C0.33 0 0.66 0 1 0 C1 4.95 1 9.9 1 15 C0.67 15 0.34 15 0 15 C0 10.05 0 5.1 0 0 Z " fill="#34DAF8" transform="translate(1,32)"/>
<path d="M0 0 C0.33 0 0.66 0 1 0 C1 1.65 1 3.3 1 5 C0.67 5 0.34 5 0 5 C0 3.35 0 1.7 0 0 Z " fill="#37C6F8" transform="translate(36,17)"/>
<path d="M0 0 C0.66 0.33 1.32 0.66 2 1 C1.01 1 0.02 1 -1 1 C-0.67 0.67 -0.34 0.34 0 0 Z " fill="#243C8D" transform="translate(58,61)"/>
<path d="M0 0 C1 4 1 4 1 4 Z " fill="#2B8CE8" transform="translate(36,57)"/>
<path d="M0 0 C0.99 0.33 1.98 0.66 3 1 C2.01 1 1.02 1 0 1 C0 0.67 0 0.34 0 0 Z " fill="#33A6FE" transform="translate(67,25)"/>
<path d="M0 0 C0.99 0.33 1.98 0.66 3 1 C2.01 1 1.02 1 0 1 C0 0.67 0 0.34 0 0 Z " fill="#33DCFD" transform="translate(57,16)"/>
<path d="" fill="#1D47B3" transform="translate(0,0)"/>
<path d="M0 0 C3 1 3 1 3 1 Z " fill="#26FBFE" transform="translate(46,8)"/>
<path d="" fill="#248BEE" transform="translate(0,0)"/>
<path d="" fill="#3346A5" transform="translate(0,0)"/>
<path d="" fill="#3153A7" transform="translate(0,0)"/>
<path d="" fill="#2053A2" transform="translate(0,0)"/>
<path d="" fill="#2943A7" transform="translate(0,0)"/>
<path d="" fill="#26459F" transform="translate(0,0)"/>
<path d="" fill="#3151A5" transform="translate(0,0)"/>
<path d="" fill="#24519D" transform="translate(0,0)"/>
<path d="" fill="#375B9E" transform="translate(0,0)"/>
<path d="" fill="#3049A3" transform="translate(0,0)"/>
<path d="" fill="#2D579B" transform="translate(0,0)"/>
<path d="" fill="#1948A4" transform="translate(0,0)"/>
<path d="" fill="#3159A1" transform="translate(0,0)"/>
<path d="" fill="#233D96" transform="translate(0,0)"/>
<path d="" fill="#2E58A7" transform="translate(0,0)"/>
<path d="" fill="#203493" transform="translate(0,0)"/>
<path d="" fill="#3659B2" transform="translate(0,0)"/>
<path d="" fill="#2B5EAF" transform="translate(0,0)"/>
<path d="" fill="#365593" transform="translate(0,0)"/>
<path d="" fill="#3A52A0" transform="translate(0,0)"/>
<path d="" fill="#314592" transform="translate(0,0)"/>
<path d="" fill="#2D5092" transform="translate(0,0)"/>
<path d="" fill="#314688" transform="translate(0,0)"/>
<path d="" fill="#00B5FF" transform="translate(0,0)"/>
<path d="" fill="#2D499D" transform="translate(0,0)"/>
<path d="" fill="#17CCFF" transform="translate(0,0)"/>
<path d="" fill="#324987" transform="translate(0,0)"/>
<path d="" fill="#16DEFF" transform="translate(0,0)"/>
<path d="" fill="#2F488D" transform="translate(0,0)"/>
<path d="" fill="#20DEFD" transform="translate(0,0)"/>
<path d="" fill="#304A8F" transform="translate(0,0)"/>
<path d="" fill="#3BD2FD" transform="translate(0,0)"/>
<path d="" fill="#2F498B" transform="translate(0,0)"/>
<path d="" fill="#2BC8FD" transform="translate(0,0)"/>
<path d="" fill="#2A468B" transform="translate(0,0)"/>
<path d="" fill="#364F8F" transform="translate(0,0)"/>
<path d="" fill="#27439C" transform="translate(0,0)"/>
<path d="" fill="#1F74BE" transform="translate(0,0)"/>
<path d="" fill="#276299" transform="translate(0,0)"/>
<path d="" fill="#277FB2" transform="translate(0,0)"/>
<path d="" fill="#215097" transform="translate(0,0)"/>
<path d="" fill="#143595" transform="translate(0,0)"/>
<path d="" fill="#1835A5" transform="translate(0,0)"/>
<path d="" fill="#2D407C" transform="translate(0,0)"/>
<path d="" fill="#0A96FF" transform="translate(0,0)"/>
<path d="" fill="#2096FD" transform="translate(0,0)"/>
<path d="" fill="#269BFE" transform="translate(0,0)"/>
<path d="" fill="#28ACFF" transform="translate(0,0)"/>
<path d="" fill="#34AFFD" transform="translate(0,0)"/>
<path d="" fill="#A4FFFF" transform="translate(0,0)"/>
<path d="" fill="#37B8FB" transform="translate(0,0)"/>
<path d="" fill="#ADFDFF" transform="translate(0,0)"/>
<path d="" fill="#44B3FC" transform="translate(0,0)"/>
<path d="" fill="#4CC5FD" transform="translate(0,0)"/>
<path d="" fill="#1F81DD" transform="translate(0,0)"/>
<path d="" fill="#1772DC" transform="translate(0,0)"/>
<path d="" fill="#00B9FE" transform="translate(0,0)"/>
<path d="" fill="#126BD1" transform="translate(0,0)"/>
<path d="" fill="#15C4FF" transform="translate(0,0)"/>
<path d="" fill="#217EE0" transform="translate(0,0)"/>
<path d="" fill="#24C3FE" transform="translate(0,0)"/>
<path d="" fill="#0C74E2" transform="translate(0,0)"/>
<path d="" fill="#36C7FE" transform="translate(0,0)"/>
<path d="" fill="#41D9FD" transform="translate(0,0)"/>
<path d="" fill="#4CDAFD" transform="translate(0,0)"/>
<path d="" fill="#53D5FC" transform="translate(0,0)"/>
<path d="" fill="#97FFFE" transform="translate(0,0)"/>
<path d="" fill="#01DBFF" transform="translate(0,0)"/>
<path d="" fill="#7CFFFE" transform="translate(0,0)"/>
<path d="" fill="#1CEEFF" transform="translate(0,0)"/>
<path d="" fill="#91FFFE" transform="translate(0,0)"/>
<path d="" fill="#2BE9FE" transform="translate(0,0)"/>
<path d="" fill="#A3FFFE" transform="translate(0,0)"/>
<path d="" fill="#30E7FD" transform="translate(0,0)"/>
<path d="" fill="#A4FFFE" transform="translate(0,0)"/>
<path d="" fill="#35E4FD" transform="translate(0,0)"/>
<path d="" fill="#ACFFFE" transform="translate(0,0)"/>
<path d="" fill="#4FE5FE" transform="translate(0,0)"/>
<path d="" fill="#C7FFFF" transform="translate(0,0)"/>
<path d="" fill="#53EFFE" transform="translate(0,0)"/>
<path d="" fill="#00F9FE" transform="translate(0,0)"/>
</svg>
